<svg width="804" height="1117" viewBox="0 0 804 1117" fill="none" xmlns="http://www.w3.org/2000/svg">
<path d="M783.824 300.026L582.059 325.381C576.353 301.905 566.367 279.837 552.1 259.178C538.242 238.519 519.492 221.851 495.851 209.173C472.21 196.496 443.27 190.158 409.031 190.158C362.972 190.158 324.249 201.661 292.864 224.668C261.886 247.674 246.601 277.489 247.008 314.112C246.601 345.57 256.587 371.16 276.967 390.88C297.755 410.6 331.994 426.798 379.684 439.475L539.872 478.915C628.73 500.983 694.762 535.963 737.968 583.854C781.582 631.746 803.592 694.428 804 771.899C803.592 839.98 786.269 900.08 752.03 952.197C718.199 1003.84 671.121 1044.22 610.795 1073.33C550.47 1102.44 481.177 1117 402.917 1117C287.973 1117 195.446 1089.3 125.338 1033.89C55.2304 978.021 13.451 900.314 0 800.775L215.827 776.829C225.609 825.66 246.397 862.517 278.19 887.402C309.983 912.287 351.355 924.729 402.306 924.729C454.887 924.729 497.074 912.287 528.867 887.402C561.068 862.517 577.168 831.764 577.168 795.141C577.168 764.152 566.774 738.563 545.986 718.373C525.606 698.184 493.813 682.689 450.607 671.89L290.418 633.154C200.338 611.556 133.694 575.168 90.4882 523.99C47.2821 472.342 25.8829 407.078 26.2905 328.198C25.8829 261.525 41.5757 203.774 73.3688 154.943C105.57 105.643 150.202 67.6115 207.267 40.8486C264.739 13.6162 330.975 0 405.974 0C516.027 0 602.643 26.9977 665.822 80.993C729.408 134.988 768.742 208 783.824 300.026Z" fill="#5C848D"/>
</svg>
