<svg width="416" height="98" viewBox="0 0 416 98" fill="none" xmlns="http://www.w3.org/2000/svg">
<path d="M383.768 76.8975V20.6237H396.628V30.0027H397.214C398.24 26.7542 399.998 24.2507 402.489 22.4922C405.005 20.7092 407.875 19.8177 411.099 19.8177C411.832 19.8177 412.65 19.8543 413.554 19.9276C414.482 19.9764 415.251 20.0619 415.862 20.1841V32.384C415.3 32.1886 414.408 32.0177 413.187 31.8711C411.99 31.7002 410.83 31.6147 409.707 31.6147C407.289 31.6147 405.115 32.1398 403.185 33.19C401.28 34.2159 399.778 35.6447 398.679 37.4765C397.58 39.3083 397.031 41.4211 397.031 43.8146V76.8975H383.768Z" fill="#BEA986"/>
<path d="M347.525 77.9964C341.883 77.9964 337.011 76.824 332.907 74.4793C328.828 72.1101 325.69 68.764 323.492 64.4409C321.293 60.0933 320.194 54.9764 320.194 49.0902C320.194 43.3016 321.293 38.2213 323.492 33.8493C325.714 29.4529 328.816 26.0335 332.797 23.5911C336.778 21.1242 341.456 19.8908 346.829 19.8908C350.297 19.8908 353.57 20.4526 356.648 21.5761C359.75 22.6752 362.485 24.3849 364.854 26.7052C367.248 29.0255 369.129 31.9809 370.496 35.5713C371.864 39.1372 372.548 43.3871 372.548 48.3208V52.3874H326.423V43.4481H359.835C359.811 40.908 359.261 38.6487 358.186 36.6704C357.112 34.6676 355.61 33.0922 353.68 31.9442C351.775 30.7963 349.552 30.2223 347.012 30.2223C344.301 30.2223 341.92 30.8818 339.868 32.2007C337.817 33.4952 336.217 35.2049 335.069 37.3298C333.945 39.4303 333.371 41.7384 333.347 44.2541V52.0577C333.347 55.3306 333.945 58.1394 335.142 60.4841C336.339 62.8044 338.012 64.5874 340.161 65.8331C342.311 67.0543 344.826 67.6649 347.708 67.6649C349.638 67.6649 351.384 67.3962 352.947 66.8589C354.511 66.2971 355.866 65.4789 357.014 64.4042C358.162 63.3296 359.029 61.9984 359.615 60.4109L371.998 61.803C371.217 65.0759 369.727 67.9336 367.529 70.376C365.355 72.794 362.571 74.6747 359.176 76.018C355.781 77.3369 351.897 77.9964 347.525 77.9964Z" fill="#BEA986"/>
<path d="M278.511 77.8866C274.09 77.8866 270.133 76.7508 266.641 74.4794C263.148 72.2079 260.388 68.9106 258.361 64.5875C256.334 60.2644 255.32 55.0131 255.32 48.8337C255.32 42.5811 256.346 37.3054 258.398 33.0068C260.474 28.6836 263.27 25.423 266.787 23.2248C270.304 21.0022 274.225 19.8909 278.548 19.8909C281.845 19.8909 284.556 20.4526 286.681 21.5761C288.806 22.6752 290.491 24.0064 291.737 25.5695C292.982 27.1083 293.947 28.5615 294.631 29.9293H295.181V1.86566H308.48V76.8974H295.437V68.0313H294.631C293.947 69.3991 292.958 70.8523 291.664 72.3911C290.369 73.9054 288.659 75.1999 286.534 76.2745C284.41 77.3492 281.735 77.8866 278.511 77.8866ZM282.211 67.0055C285.02 67.0055 287.414 66.2483 289.392 64.734C291.37 63.1953 292.873 61.0581 293.898 58.3226C294.924 55.5871 295.437 52.3997 295.437 48.7605C295.437 45.1212 294.924 41.9583 293.898 39.2716C292.897 36.5849 291.407 34.4966 289.429 33.0068C287.475 31.5169 285.069 30.7719 282.211 30.7719C279.256 30.7719 276.789 31.5413 274.811 33.08C272.832 34.6188 271.342 36.7437 270.341 39.4548C269.34 42.1659 268.839 45.2678 268.839 48.7605C268.839 52.2776 269.34 55.4161 270.341 58.1761C271.367 60.9116 272.869 63.0732 274.847 64.6607C276.85 66.2239 279.305 67.0055 282.211 67.0055Z" fill="#BEA986"/>
<path d="M208.022 43.9244V76.8973H194.76V20.6235H207.436V30.1857H208.095C209.39 27.0349 211.454 24.5314 214.287 22.6752C217.145 20.8189 220.674 19.8908 224.875 19.8908C228.759 19.8908 232.141 20.7212 235.023 22.3821C237.93 24.043 240.177 26.4488 241.764 29.5995C243.377 32.7502 244.17 36.5727 244.146 41.0667V76.8973H230.883V43.1184C230.883 39.357 229.906 36.4139 227.952 34.289C226.023 32.1641 223.349 31.1016 219.929 31.1016C217.609 31.1016 215.545 31.6145 213.738 32.6403C211.955 33.6417 210.55 35.095 209.524 37.0001C208.523 38.9052 208.022 41.2133 208.022 43.9244Z" fill="#BEA986"/>
<path d="M158.517 77.9964C152.875 77.9964 148.003 76.824 143.899 74.4793C139.821 72.1101 136.682 68.764 134.484 64.4409C132.286 60.0933 131.187 54.9764 131.187 49.0902C131.187 43.3016 132.286 38.2213 134.484 33.8493C136.706 29.4529 139.808 26.0335 143.79 23.5911C147.771 21.1242 152.448 19.8908 157.821 19.8908C161.29 19.8908 164.562 20.4526 167.64 21.5761C170.742 22.6752 173.477 24.3849 175.847 26.7052C178.24 29.0255 180.121 31.9809 181.489 35.5713C182.856 39.1372 183.54 43.3871 183.54 48.3208V52.3874H137.415V43.4481H170.827C170.803 40.908 170.253 38.6487 169.179 36.6704C168.104 34.6676 166.602 33.0922 164.672 31.9442C162.767 30.7963 160.545 30.2223 158.004 30.2223C155.293 30.2223 152.912 30.8818 150.86 32.2007C148.809 33.4952 147.209 35.2049 146.061 37.3298C144.937 39.4303 144.363 41.7384 144.339 44.2541V52.0577C144.339 55.3306 144.937 58.1394 146.134 60.4841C147.331 62.8044 149.004 64.5874 151.153 65.8331C153.303 67.0543 155.819 67.6649 158.701 67.6649C160.63 67.6649 162.376 67.3962 163.94 66.8589C165.503 66.2971 166.858 65.4789 168.006 64.4042C169.154 63.3296 170.021 61.9984 170.607 60.4109L182.991 61.803C182.209 65.0759 180.719 67.9336 178.521 70.376C176.347 72.794 173.563 74.6747 170.168 76.018C166.773 77.3369 162.889 77.9964 158.517 77.9964Z" fill="#BEA986"/>
<path d="M69.124 98V20.6235H82.1666V29.9292H82.936C83.6199 28.5615 84.5847 27.1082 85.8303 25.5695C87.0759 24.0063 88.7612 22.6752 90.8861 21.5761C93.0111 20.4526 95.7222 19.8908 99.0195 19.8908C103.367 19.8908 107.287 21.0021 110.78 23.2247C114.297 25.4229 117.081 28.6836 119.133 33.0067C121.209 37.3054 122.247 42.5811 122.247 48.8337C122.247 55.0131 121.233 60.2643 119.206 64.5874C117.179 68.9105 114.419 72.2078 110.926 74.4793C107.434 76.7508 103.477 77.8865 99.0561 77.8865C95.8321 77.8865 93.1576 77.3492 91.0327 76.2745C88.9078 75.1998 87.1981 73.9053 85.9036 72.391C84.6335 70.8523 83.6443 69.399 82.936 68.0313H82.3865V98H69.124ZM82.13 48.7604C82.13 52.3997 82.6429 55.587 83.6687 58.3226C84.719 61.0581 86.2211 63.1952 88.175 64.734C90.1534 66.2483 92.547 67.0054 95.3558 67.0054C98.2867 67.0054 100.741 66.2239 102.72 64.6607C104.698 63.0731 106.188 60.9116 107.189 58.176C108.215 55.4161 108.728 52.2775 108.728 48.7604C108.728 45.2677 108.227 42.1658 107.226 39.4547C106.225 36.7436 104.735 34.6187 102.756 33.08C100.778 31.5412 98.3112 30.7719 95.3558 30.7719C92.5226 30.7719 90.1168 31.5168 88.1384 33.0067C86.16 34.4966 84.6579 36.5849 83.6321 39.2716C82.6307 41.9582 82.13 45.1212 82.13 48.7604Z" fill="#BEA986"/>
<path d="M43.4876 22.4921C43.1457 19.2925 41.7046 16.8012 39.1645 15.0183C36.6488 13.2353 33.3759 12.3438 29.3459 12.3438C26.5127 12.3438 24.0824 12.7712 22.0552 13.6261C20.028 14.4809 18.477 15.6411 17.4024 17.1065C16.3277 18.572 15.7782 20.2451 15.7537 22.1258C15.7537 23.6889 16.1079 25.0445 16.8162 26.1924C17.5489 27.3404 18.5381 28.3173 19.7838 29.1233C21.0294 29.9049 22.4094 30.5644 23.9237 31.1017C25.438 31.6391 26.9645 32.0909 28.5033 32.4573L35.5375 34.2158C38.3707 34.8753 41.094 35.7668 43.7074 36.8903C46.3453 38.0138 48.7022 39.4304 50.7783 41.1401C52.8788 42.8498 54.5396 44.9137 55.7609 47.3317C56.9821 49.7497 57.5927 52.583 57.5927 55.8314C57.5927 60.2278 56.4692 64.0991 54.2221 67.4452C51.9751 70.7669 48.7266 73.3681 44.4768 75.2488C40.2514 77.105 35.1345 78.0332 29.1261 78.0332C23.2886 78.0332 18.2206 77.1295 13.9219 75.3221C9.64763 73.5147 6.30149 70.8768 3.88348 67.4086C1.48989 63.9403 0.195395 59.7149 0 54.7323H13.3724C13.5677 57.3457 14.3738 59.5195 15.7904 61.2536C17.207 62.9878 19.051 64.2822 21.3225 65.1371C23.6184 65.992 26.1829 66.4194 29.0162 66.4194C31.9715 66.4194 34.5605 65.9797 36.7831 65.1005C39.0302 64.1968 40.7887 62.9511 42.0588 61.3635C43.3289 59.7515 43.9761 57.8708 44.0005 55.7215C43.9761 53.7676 43.4021 52.1555 42.2786 50.8855C41.1551 49.591 39.5797 48.5163 37.5525 47.6615C35.5497 46.7822 33.205 46.0006 30.5183 45.3167L21.9819 43.1185C15.8026 41.5309 10.9177 39.1251 7.32731 35.9011C3.76136 32.6527 1.97838 28.3418 1.97838 22.9684C1.97838 18.5476 3.17517 14.6763 5.56876 11.3546C7.98677 8.03289 11.2719 5.45611 15.424 3.62428C19.5761 1.76803 24.2778 0.839905 29.5291 0.839905C34.8536 0.839905 39.5187 1.76803 43.5243 3.62428C47.5543 5.45611 50.7172 8.00846 53.0131 11.2813C55.309 14.5298 56.4936 18.2667 56.5669 22.4921H43.4876Z" fill="#BEA986"/>
</svg>
