<svg width="521" height="22" viewBox="0 0 521 22" fill="none" xmlns="http://www.w3.org/2000/svg">
<path d="M503.443 20.7452V0.279785H511.599C513.372 0.279785 514.843 0.552924 516.012 1.0992C517.189 1.64548 518.068 2.40161 518.649 3.36758C519.23 4.3269 519.521 5.43611 519.521 6.69521C519.521 7.94765 519.226 9.0502 518.638 10.0029C518.057 10.9488 517.178 11.685 516.001 12.2113C514.832 12.7376 513.361 13.0007 511.588 13.0007H505.41V10.3426H511.275C512.393 10.3426 513.301 10.1994 514.001 9.91292C514.709 9.62645 515.227 9.21008 515.554 8.66381C515.882 8.11753 516.046 7.46133 516.046 6.69521C516.046 5.92243 515.878 5.2529 515.543 4.68664C515.215 4.12038 514.698 3.68736 513.99 3.38757C513.29 3.08112 512.37 2.9279 511.231 2.9279H506.896V20.7452H503.443ZM514.739 11.5118L520.392 20.7452H516.459L510.918 11.5118H514.739Z" fill="white"/>
<path d="M481.97 20.7452V0.279785H496.315V2.93789H485.422V9.17344H495.567V11.8216H485.422V18.0871H496.449V20.7452H481.97Z" fill="white"/>
<path d="M474.425 0.279785V20.7452H470.973V0.279785H474.425Z" fill="white"/>
<path d="M460.688 5.65597C460.569 4.70997 460.078 3.97716 459.214 3.45753C458.35 2.93124 457.262 2.6681 455.951 2.6681C455.013 2.6681 454.201 2.80134 453.516 3.06781C452.83 3.32763 452.298 3.68737 451.918 4.14704C451.546 4.60005 451.359 5.11635 451.359 5.69594C451.359 6.18226 451.486 6.60196 451.739 6.95504C452 7.30812 452.339 7.60458 452.756 7.84441C453.18 8.07757 453.635 8.2741 454.119 8.43398C454.603 8.58721 455.069 8.71379 455.515 8.81371L457.75 9.33334C458.48 9.49323 459.228 9.70974 459.996 9.98288C460.763 10.256 461.474 10.6158 462.13 11.0621C462.785 11.5085 463.314 12.0614 463.716 12.7209C464.126 13.3805 464.331 14.1699 464.331 15.0892C464.331 16.2484 463.995 17.2777 463.325 18.177C462.662 19.0764 461.698 19.7859 460.431 20.3055C459.173 20.8251 457.649 21.085 455.862 21.085C454.149 21.085 452.667 20.8418 451.415 20.3555C450.164 19.8692 449.184 19.1797 448.477 18.287C447.769 17.3876 447.378 16.3217 447.304 15.0892H450.767C450.834 15.8287 451.102 16.4449 451.572 16.9379C452.048 17.4242 452.655 17.7873 453.393 18.0271C454.138 18.2603 454.953 18.3769 455.839 18.3769C456.815 18.3769 457.683 18.2403 458.443 17.9672C459.21 17.6874 459.813 17.301 460.253 16.808C460.692 16.3084 460.912 15.7255 460.912 15.0593C460.912 14.453 460.718 13.9567 460.331 13.5703C459.951 13.1839 459.433 12.8642 458.778 12.611C458.13 12.3579 457.396 12.1347 456.577 11.9415L453.873 11.282C452.041 10.8356 450.588 10.1794 449.516 9.31336C448.451 8.44731 447.918 7.30146 447.918 5.87581C447.918 4.69665 448.276 3.66738 448.991 2.78801C449.706 1.90864 450.674 1.22579 451.896 0.739473C453.117 0.246491 454.495 0 456.029 0C457.579 0 458.945 0.24316 460.13 0.72948C461.321 1.2158 462.26 1.88532 462.945 2.73805C463.63 3.58411 463.988 4.55675 464.018 5.65597H460.688Z" fill="white"/>
<path d="M425.78 20.7452H422.115L430.349 0.279785H434.338L442.572 20.7452H438.907L432.438 3.99713H432.26L425.78 20.7452ZM426.394 12.7309H438.282V15.3291H426.394V12.7309Z" fill="white"/>
<path d="M402.374 20.7452V0.279785H416.719V2.93789H405.826V9.17344H415.97V11.8216H405.826V18.0871H416.853V20.7452H402.374Z" fill="white"/>
<path d="M370.057 20.7452V0.279785H384.402V2.93789H373.509V9.17344H383.654V11.8216H373.509V18.0871H384.536V20.7452H370.057Z" fill="white"/>
<path d="M352.242 20.7452H344.834V0.279785H352.476C354.718 0.279785 356.644 0.689493 358.253 1.50891C359.861 2.32166 361.094 3.49083 361.951 5.01641C362.815 6.53532 363.247 8.35736 363.247 10.4825C363.247 12.6143 362.811 14.4464 361.94 15.9786C361.075 17.5108 359.824 18.69 358.186 19.5161C356.547 20.3355 354.566 20.7452 352.242 20.7452ZM348.287 18.0471H352.052C353.795 18.0471 355.243 17.754 356.398 17.1677C357.552 16.5748 358.416 15.7188 358.99 14.5996C359.563 13.4737 359.85 12.1014 359.85 10.4825C359.85 8.87699 359.563 7.51463 358.99 6.39542C358.424 5.27622 357.579 4.42683 356.454 3.84724C355.329 3.26765 353.933 2.97786 352.264 2.97786H348.287V18.0471Z" fill="white"/>
<path d="M322.221 20.7452H318.556L326.79 0.279785H330.779L339.013 20.7452H335.349L328.88 3.99713H328.701L322.221 20.7452ZM322.835 12.7309H334.723V15.3291H322.835V12.7309Z" fill="white"/>
<path d="M289.535 0.279785H293.725L301.009 16.1884H301.277L308.562 0.279785H312.751V20.7452H309.467V5.93575H309.254L302.506 20.7152H299.78L293.032 5.92576H292.82V20.7452H289.535V0.279785Z" fill="white"/>
<path d="M268.407 5.65597C268.288 4.70997 267.796 3.97716 266.932 3.45753C266.068 2.93124 264.981 2.6681 263.67 2.6681C262.731 2.6681 261.92 2.80134 261.234 3.06781C260.549 3.32763 260.017 3.68737 259.637 4.14704C259.264 4.60005 259.078 5.11635 259.078 5.69594C259.078 6.18226 259.205 6.60196 259.458 6.95504C259.719 7.30812 260.058 7.60458 260.475 7.84441C260.899 8.07757 261.353 8.2741 261.838 8.43398C262.322 8.58721 262.787 8.71379 263.234 8.81371L265.469 9.33334C266.199 9.49323 266.947 9.70974 267.714 9.98288C268.482 10.256 269.193 10.6158 269.848 11.0621C270.504 11.5085 271.033 12.0614 271.435 12.7209C271.844 13.3805 272.049 14.1699 272.049 15.0892C272.049 16.2484 271.714 17.2777 271.044 18.177C270.381 19.0764 269.416 19.7859 268.15 20.3055C266.891 20.8251 265.368 21.085 263.581 21.085C261.867 21.085 260.385 20.8418 259.134 20.3555C257.883 19.8692 256.903 19.1797 256.196 18.287C255.488 17.3876 255.097 16.3217 255.022 15.0892H258.486C258.553 15.8287 258.821 16.4449 259.29 16.9379C259.767 17.4242 260.374 17.7873 261.111 18.0271C261.856 18.2603 262.672 18.3769 263.558 18.3769C264.534 18.3769 265.402 18.2403 266.161 17.9672C266.929 17.6874 267.532 17.301 267.971 16.808C268.411 16.3084 268.63 15.7255 268.63 15.0593C268.63 14.453 268.437 13.9567 268.05 13.5703C267.67 13.1839 267.152 12.8642 266.497 12.611C265.849 12.3579 265.115 12.1347 264.296 11.9415L261.592 11.282C259.76 10.8356 258.307 10.1794 257.235 9.31336C256.169 8.44731 255.637 7.30146 255.637 5.87581C255.637 4.69665 255.994 3.66738 256.709 2.78801C257.425 1.90864 258.393 1.22579 259.614 0.739473C260.836 0.246491 262.214 0 263.748 0C265.297 0 266.664 0.24316 267.848 0.72948C269.04 1.2158 269.979 1.88532 270.664 2.73805C271.349 3.58411 271.707 4.55675 271.736 5.65597H268.407Z" fill="white"/>
<path d="M248.375 0.279785V20.7452H245.202L233.571 5.7359H233.359V20.7452H229.907V0.279785H233.102L244.744 15.3091H244.956V0.279785H248.375Z" fill="white"/>
<path d="M223.085 10.5125C223.085 12.6976 222.638 14.5763 221.745 16.1485C220.851 17.714 219.626 18.9198 218.069 19.7659C216.52 20.6053 214.758 21.025 212.784 21.025C210.803 21.025 209.034 20.6053 207.477 19.7659C205.928 18.9198 204.707 17.7107 203.813 16.1385C202.919 14.5663 202.472 12.6909 202.472 10.5125C202.472 8.32739 202.919 6.45206 203.813 4.88651C204.707 3.3143 205.928 2.1085 207.477 1.26909C209.034 0.423032 210.803 0 212.784 0C214.758 0 216.52 0.423032 218.069 1.26909C219.626 2.1085 220.851 3.3143 221.745 4.88651C222.638 6.45206 223.085 8.32739 223.085 10.5125ZM219.667 10.5125C219.667 8.84702 219.365 7.44469 218.762 6.3055C218.166 5.15965 217.346 4.2936 216.304 3.70736C215.268 3.11445 214.095 2.81799 212.784 2.81799C211.466 2.81799 210.289 3.11445 209.254 3.70736C208.219 4.2936 207.399 5.15965 206.796 6.3055C206.2 7.44469 205.902 8.84702 205.902 10.5125C205.902 12.178 206.2 13.5836 206.796 14.7295C207.399 15.8687 208.219 16.7347 209.254 17.3276C210.289 17.9139 211.466 18.207 212.784 18.207C214.095 18.207 215.268 17.9139 216.304 17.3276C217.346 16.7347 218.166 15.8687 218.762 14.7295C219.365 13.5836 219.667 12.178 219.667 10.5125Z" fill="white"/>
<path d="M195.666 0.279785V20.7452H192.213V0.279785H195.666Z" fill="white"/>
<path d="M168.076 2.93789V0.279785H185.784V2.93789H178.645V20.7452H175.204V2.93789H168.076Z" fill="white"/>
<path d="M162.556 6.93505H159.07C158.936 6.26886 158.686 5.68261 158.321 5.17631C157.956 4.67 157.509 4.24031 156.981 3.88723C156.452 3.53415 155.86 3.26767 155.204 3.0878C154.556 2.90793 153.867 2.81799 153.137 2.81799C151.819 2.81799 150.638 3.11445 149.596 3.70736C148.56 4.30027 147.741 5.16965 147.138 6.3155C146.542 7.46134 146.244 8.86035 146.244 10.5125C146.244 12.178 146.542 13.5836 147.138 14.7295C147.741 15.8753 148.564 16.7414 149.607 17.3276C150.65 17.9139 151.823 18.207 153.126 18.207C153.849 18.207 154.534 18.1204 155.182 17.9472C155.837 17.7673 156.429 17.5042 156.958 17.1578C157.487 16.8113 157.934 16.3883 158.299 15.8887C158.671 15.3824 158.928 14.8028 159.07 14.1499L162.556 14.1599C162.369 15.1658 162.008 16.0919 161.472 16.9379C160.943 17.7773 160.262 18.5035 159.427 19.1164C158.601 19.7226 157.655 20.1923 156.59 20.5254C155.524 20.8585 154.363 21.025 153.104 21.025C151.123 21.025 149.357 20.6053 147.808 19.7659C146.259 18.9198 145.037 17.7107 144.143 16.1385C143.257 14.5663 142.814 12.6909 142.814 10.5125C142.814 8.32739 143.261 6.45206 144.155 4.88651C145.048 3.3143 146.27 2.1085 147.819 1.26909C149.368 0.423032 151.13 0 153.104 0C154.318 0 155.45 0.156555 156.5 0.469666C157.558 0.776113 158.508 1.22912 159.349 1.8287C160.191 2.42161 160.887 3.14776 161.438 4.00714C161.99 4.85987 162.362 5.83584 162.556 6.93505Z" fill="white"/>
<path d="M122.013 20.7452H118.349L126.583 0.279785H130.571L138.805 20.7452H135.141L128.672 3.99713H128.493L122.013 20.7452ZM122.628 12.7309H134.515V15.3291H122.628V12.7309Z" fill="white"/>
<path d="M109.98 5.65597C109.861 4.70997 109.37 3.97716 108.506 3.45753C107.642 2.93124 106.554 2.6681 105.243 2.6681C104.305 2.6681 103.493 2.80134 102.808 3.06781C102.122 3.32763 101.59 3.68737 101.21 4.14704C100.838 4.60005 100.651 5.11635 100.651 5.69594C100.651 6.18226 100.778 6.60196 101.031 6.95504C101.292 7.30812 101.631 7.60458 102.048 7.84441C102.472 8.07757 102.927 8.2741 103.411 8.43398C103.895 8.58721 104.361 8.71379 104.807 8.81371L107.042 9.33334C107.772 9.49323 108.52 9.70974 109.288 9.98288C110.055 10.256 110.766 10.6158 111.422 11.0621C112.077 11.5085 112.606 12.0614 113.008 12.7209C113.418 13.3805 113.623 14.1699 113.623 15.0892C113.623 16.2484 113.287 17.2777 112.617 18.177C111.954 19.0764 110.99 19.7859 109.723 20.3055C108.465 20.8251 106.941 21.085 105.154 21.085C103.441 21.085 101.958 20.8418 100.707 20.3555C99.4559 19.8692 98.4764 19.1797 97.7688 18.287C97.0612 17.3876 96.6702 16.3217 96.5957 15.0892H100.059C100.126 15.8287 100.394 16.4449 100.864 16.9379C101.34 17.4242 101.947 17.7873 102.685 18.0271C103.43 18.2603 104.245 18.3769 105.131 18.3769C106.107 18.3769 106.975 18.2403 107.735 17.9672C108.502 17.6874 109.105 17.301 109.545 16.808C109.984 16.3084 110.204 15.7255 110.204 15.0593C110.204 14.453 110.01 13.9567 109.623 13.5703C109.243 13.1839 108.725 12.8642 108.07 12.611C107.422 12.3579 106.688 12.1347 105.869 11.9415L103.165 11.282C101.333 10.8356 99.8804 10.1794 98.8078 9.31336C97.7427 8.44731 97.2102 7.30146 97.2102 5.87581C97.2102 4.69665 97.5677 3.66738 98.2827 2.78801C98.9978 1.90864 99.9661 1.22579 101.188 0.739473C102.409 0.246491 103.787 0 105.321 0C106.871 0 108.237 0.24316 109.422 0.72948C110.613 1.2158 111.552 1.88532 112.237 2.73805C112.922 3.58411 113.28 4.55675 113.31 5.65597H109.98Z" fill="white"/>
<path d="M89.948 0.279785V20.7452H86.7751L75.1445 5.7359H74.9323V20.7452H71.48V0.279785H74.6753L86.317 15.3091H86.5293V0.279785H89.948Z" fill="white"/>
<path d="M48.8662 20.7452H45.2017L53.4358 0.279785H57.4243L65.6584 20.7452H61.9938L55.525 3.99713H55.3462L48.8662 20.7452ZM49.4807 12.7309H61.3682V15.3291H49.4807V12.7309Z" fill="white"/>
<path d="M24.1387 20.7452V0.279785H32.2946C34.0672 0.279785 35.5383 0.552924 36.7077 1.0992C37.8845 1.64548 38.7634 2.40161 39.3444 3.36758C39.9253 4.3269 40.2158 5.43611 40.2158 6.69521C40.2158 7.94765 39.9216 9.0502 39.3332 10.0029C38.7522 10.9488 37.8733 11.685 36.6965 12.2113C35.5271 12.7376 34.0561 13.0007 32.2834 13.0007H26.105V10.3426H31.9706C33.0878 10.3426 33.9965 10.1994 34.6966 9.91292C35.4042 9.62645 35.9219 9.21008 36.2496 8.66381C36.5773 8.11753 36.7412 7.46133 36.7412 6.69521C36.7412 5.92243 36.5736 5.2529 36.2384 4.68664C35.9107 4.12038 35.393 3.68736 34.6855 3.38757C33.9853 3.08112 33.0655 2.9279 31.9259 2.9279H27.591V20.7452H24.1387ZM35.434 11.5118L41.0873 20.7452H37.1546L31.613 11.5118H35.434Z" fill="white"/>
<path d="M0 2.93789V0.279785H17.7083V2.93789H10.5691V20.7452H7.12802V2.93789H0Z" fill="white"/>
</svg>
