<svg width="583" height="77" viewBox="0 0 583 77" fill="none" xmlns="http://www.w3.org/2000/svg">
<path d="M555.768 76.1307C550.272 76.1307 545.509 74.9217 541.479 72.5037C537.449 70.0857 534.323 66.7029 532.101 62.3554C529.902 58.0079 528.803 52.9276 528.803 47.1146C528.803 41.3016 529.902 36.2091 532.101 31.8371C534.323 27.4652 537.449 24.0702 541.479 21.6522C545.509 19.2342 550.272 18.0251 555.768 18.0251C561.263 18.0251 566.026 19.2342 570.056 21.6522C574.086 24.0702 577.2 27.4652 579.398 31.8371C581.621 36.2091 582.732 41.3016 582.732 47.1146C582.732 52.9276 581.621 58.0079 579.398 62.3554C577.2 66.7029 574.086 70.0857 570.056 72.5037C566.026 74.9217 561.263 76.1307 555.768 76.1307ZM555.841 65.5061C558.821 65.5061 561.312 64.6879 563.315 63.0515C565.318 61.3906 566.808 59.168 567.785 56.3836C568.786 53.5993 569.287 50.4974 569.287 47.0779C569.287 43.6341 568.786 40.52 567.785 37.7356C566.808 34.9268 565.318 32.692 563.315 31.0311C561.312 29.3703 558.821 28.5398 555.841 28.5398C552.788 28.5398 550.248 29.3703 548.221 31.0311C546.218 32.692 544.716 34.9268 543.714 37.7356C542.737 40.52 542.249 43.6341 542.249 47.0779C542.249 50.4974 542.737 53.5993 543.714 56.3836C544.716 59.168 546.218 61.3906 548.221 63.0515C550.248 64.6879 552.788 65.5061 555.841 65.5061Z" fill="white"/>
<path d="M520.734 18.758V29.0162H488.384V18.758H520.734ZM496.371 5.2757H509.633V58.1056C509.633 59.8886 509.902 61.2564 510.439 62.2089C511.001 63.1371 511.734 63.7721 512.637 64.114C513.541 64.456 514.543 64.6269 515.642 64.6269C516.472 64.6269 517.229 64.5659 517.913 64.4438C518.621 64.3216 519.159 64.2117 519.525 64.114L521.76 74.4822C521.052 74.7264 520.038 74.9951 518.719 75.2882C517.425 75.5813 515.837 75.7523 513.956 75.8011C510.635 75.8988 507.643 75.3981 504.98 74.299C502.318 73.1755 500.205 71.4414 498.642 69.0966C497.104 66.7519 496.346 63.8209 496.371 60.3038V5.2757Z" fill="white"/>
<path d="M430.8 76.1307C425.158 76.1307 420.285 74.9584 416.182 72.6136C412.103 70.2445 408.965 66.8983 406.767 62.5752C404.568 58.2277 403.469 53.1108 403.469 47.2245C403.469 41.4359 404.568 36.3556 406.767 31.9837C408.989 27.5873 412.091 24.1679 416.072 21.7254C420.053 19.2586 424.731 18.0251 430.104 18.0251C433.572 18.0251 436.845 18.5869 439.923 19.7104C443.025 20.8095 445.76 22.5192 448.129 24.8395C450.523 27.1599 452.403 30.1152 453.771 33.7056C455.139 37.2716 455.823 41.5214 455.823 46.4551V50.5218H409.697V41.5825H443.11C443.086 39.0423 442.536 36.7831 441.461 34.8047C440.387 32.8019 438.885 31.2265 436.955 30.0786C435.05 28.9306 432.827 28.3567 430.287 28.3567C427.576 28.3567 425.195 29.0161 423.143 30.335C421.091 31.6295 419.492 33.3392 418.344 35.4641C417.22 37.5646 416.646 39.8728 416.622 42.3885V50.1921C416.622 53.4649 417.22 56.2737 418.417 58.6185C419.614 60.9388 421.287 62.7218 423.436 63.9674C425.586 65.1886 428.101 65.7992 430.983 65.7992C432.913 65.7992 434.659 65.5306 436.222 64.9932C437.785 64.4315 439.141 63.6133 440.289 62.5386C441.437 61.4639 442.304 60.1328 442.89 58.5452L455.273 59.9374C454.492 63.2102 453.002 66.0679 450.804 68.5103C448.63 70.9284 445.846 72.809 442.451 74.1524C439.056 75.4713 435.172 76.1307 430.8 76.1307Z" fill="white"/>
<path d="M313.298 75.0317V18.7579H325.974V28.32H326.633C327.806 25.096 329.747 22.5803 332.459 20.7729C335.17 18.9411 338.406 18.0251 342.167 18.0251C345.977 18.0251 349.189 18.9533 351.803 20.8095C354.44 22.6413 356.297 25.1449 357.371 28.32H357.958C359.203 25.1937 361.304 22.7024 364.259 20.8462C367.239 18.9655 370.768 18.0251 374.847 18.0251C380.025 18.0251 384.25 19.6616 387.523 22.9344C390.796 26.2073 392.433 30.9823 392.433 37.2593V75.0317H379.134V39.311C379.134 35.8183 378.205 33.266 376.349 31.6539C374.493 30.0175 372.221 29.1993 369.535 29.1993C366.335 29.1993 363.832 30.2007 362.024 32.2035C360.241 34.1819 359.35 36.7586 359.35 39.9338V75.0317H346.344V38.7614C346.344 35.8549 345.465 33.5346 343.706 31.8005C341.972 30.0664 339.7 29.1993 336.892 29.1993C334.986 29.1993 333.252 29.6878 331.689 30.6648C330.126 31.6173 328.88 32.9729 327.952 34.7314C327.024 36.4656 326.56 38.4928 326.56 40.8131V75.0317H313.298Z" fill="white"/>
<path d="M275.077 76.1307C269.581 76.1307 264.819 74.9217 260.789 72.5037C256.759 70.0857 253.632 66.7029 251.41 62.3554C249.211 58.0079 248.112 52.9276 248.112 47.1146C248.112 41.3016 249.211 36.2091 251.41 31.8371C253.632 27.4652 256.759 24.0702 260.789 21.6522C264.819 19.2342 269.581 18.0251 275.077 18.0251C280.572 18.0251 285.335 19.2342 289.365 21.6522C293.395 24.0702 296.509 27.4652 298.707 31.8371C300.93 36.2091 302.041 41.3016 302.041 47.1146C302.041 52.9276 300.93 58.0079 298.707 62.3554C296.509 66.7029 293.395 70.0857 289.365 72.5037C285.335 74.9217 280.572 76.1307 275.077 76.1307ZM275.15 65.5061C278.13 65.5061 280.621 64.6879 282.624 63.0515C284.627 61.3906 286.117 59.168 287.094 56.3836C288.095 53.5993 288.596 50.4974 288.596 47.0779C288.596 43.6341 288.095 40.52 287.094 37.7356C286.117 34.9268 284.627 32.692 282.624 31.0311C280.621 29.3703 278.13 28.5398 275.15 28.5398C272.097 28.5398 269.557 29.3703 267.53 31.0311C265.527 32.692 264.025 34.9268 263.023 37.7356C262.046 40.52 261.558 43.6341 261.558 47.0779C261.558 50.4974 262.046 53.5993 263.023 56.3836C264.025 59.168 265.527 61.3906 267.53 63.0515C269.557 64.6879 272.097 65.5061 275.15 65.5061Z" fill="white"/>
<path d="M215.533 76.1307C209.916 76.1307 205.092 74.8973 201.062 72.4305C197.056 69.9636 193.967 66.5564 191.793 62.2088C189.644 57.8369 188.569 52.8055 188.569 47.1146C188.569 41.3993 189.668 36.3556 191.866 31.9837C194.064 27.5873 197.166 24.1679 201.172 21.7254C205.202 19.2586 209.965 18.0251 215.46 18.0251C220.027 18.0251 224.07 18.8678 227.587 20.5531C231.128 22.2139 233.949 24.5709 236.05 27.6239C238.15 30.6525 239.347 34.1941 239.64 38.2485H226.964C226.451 35.5374 225.23 33.2782 223.3 31.4708C221.395 29.6389 218.843 28.723 215.643 28.723C212.932 28.723 210.551 29.4558 208.499 30.9212C206.447 32.3623 204.848 34.4383 203.7 37.1494C202.576 39.8605 202.014 43.109 202.014 46.8948C202.014 50.7294 202.576 54.0267 203.7 56.7866C204.823 59.5222 206.399 61.6349 208.426 63.1248C210.478 64.5902 212.883 65.323 215.643 65.323C217.597 65.323 219.344 64.9566 220.882 64.2239C222.445 63.4667 223.752 62.3798 224.802 60.9632C225.853 59.5466 226.573 57.8247 226.964 55.7974H239.64C239.323 59.7786 238.15 63.3079 236.123 66.3854C234.096 69.4385 231.336 71.8321 227.843 73.5662C224.351 75.2759 220.247 76.1307 215.533 76.1307Z" fill="white"/>
<path d="M177.349 0V75.0317H164.086V0H177.349Z" fill="white"/>
<path d="M127.844 76.1307C122.202 76.1307 117.329 74.9584 113.226 72.6136C109.147 70.2445 106.008 66.8983 103.81 62.5752C101.612 58.2277 100.513 53.1108 100.513 47.2245C100.513 41.4359 101.612 36.3556 103.81 31.9837C106.033 27.5873 109.135 24.1679 113.116 21.7254C117.097 19.2586 121.774 18.0251 127.147 18.0251C130.616 18.0251 133.889 18.5869 136.966 19.7104C140.068 20.8095 142.804 22.5192 145.173 24.8395C147.566 27.1599 149.447 30.1152 150.815 33.7056C152.182 37.2716 152.866 41.5214 152.866 46.4551V50.5218H106.741V41.5825H140.153C140.129 39.0423 139.58 36.7831 138.505 34.8047C137.43 32.8019 135.928 31.2265 133.999 30.0786C132.093 28.9306 129.871 28.3567 127.331 28.3567C124.62 28.3567 122.238 29.0161 120.187 30.335C118.135 31.6295 116.535 33.3392 115.387 35.4641C114.264 37.5646 113.69 39.8728 113.665 42.3885V50.1921C113.665 53.4649 114.264 56.2737 115.46 58.6185C116.657 60.9388 118.33 62.7218 120.48 63.9674C122.629 65.1886 125.145 65.7992 128.027 65.7992C129.956 65.7992 131.703 65.5306 133.266 64.9932C134.829 64.4315 136.185 63.6133 137.332 62.5386C138.48 61.4639 139.347 60.1328 139.934 58.5452L152.317 59.9374C151.535 63.2102 150.045 66.0679 147.847 68.5103C145.673 70.9284 142.889 72.809 139.494 74.1524C136.099 75.4713 132.216 76.1307 127.844 76.1307Z" fill="white"/>
<path d="M21.1759 75.0317L0 0H14.618L28.1369 55.1381H28.833L43.2678 0H56.5669L71.0383 55.1747H71.6978L85.2167 0H99.8347L78.6587 75.0317H65.2497L50.2287 22.3849H49.6426L34.5849 75.0317H21.1759Z" fill="white"/>
</svg>
