<?xml version="1.0" encoding="UTF-8"?>
<svg id="Layer_2" data-name="Layer 2" xmlns="http://www.w3.org/2000/svg" version="1.1" viewBox="0 0 432.9 116.1">
  <defs>
    <style>
      .cls-1 {
        fill: #000;
        stroke-width: 0px;
      }
    </style>
  </defs>
  <g id="Layer_1-2" data-name="Layer 1-2">
    <g>
      <path class="cls-1" d="M39.3,88.7c-.8-1.1-.9-2.5-.4-4.1l11.2-38c1.3-4.8,1.8-8.1,1.6-10.2-.3-2-1.2-3.1-2.6-3.1-2,0-5.6,3.1-10.9,9.2s-12.2,16.4-20.9,30.9l-4.1,15.2H0L21.9,6.2l8.8,4.6-23,.5.4-2.4c8-1.5,15.1-4.2,21.4-8,1-.7,2-1,2.9-1,1.3,0,2.3.5,3,1.5s.8,2.2.4,3.8l-12.6,47.1c-1.2,4.4-3,9.6-5.4,15.6h-.8c7.9-13,15.4-23.6,22.4-31.8,7-8.2,13.3-12.3,18.9-12.3s5.8,1.8,7,5.4c1.2,3.6.7,9.4-1.6,17.4l-6.9,23c-.6,1.9-1.3,3.9-2.3,6.1-1,2.1-2,4-3.1,5.7l-6.4-2.9c10.2-2.9,18.7-6.4,25.4-10.5l1.5,2.2-26.2,19c-1.1.7-2.1,1-3,1-1.3,0-2.4-.5-3.2-1.6h0Z"/>
      <path class="cls-1" d="M92.7,86.3c-4.5-2.7-8.1-6.4-10.6-11.1s-3.8-10.2-3.8-16.2,1.4-12.2,4.2-17.5c2.8-5.3,6.6-9.6,11.4-12.8,4.8-3.2,10.1-4.8,16.1-4.8s8.9,1,12.6,3.1c3.6,2.1,6.4,4.8,8.4,8.2,2,3.4,2.9,7.2,2.9,11.2s-.4,4.5-1.2,5.7-1.9,2-3.1,2.3-2.9.5-5,.5h-36v-3.6h36.6l-5.4,2.8v-3c.1-3.6-.4-7.1-1.5-10.7s-2.8-6.5-5.1-8.8c-2.3-2.3-5.1-3.5-8.4-3.5s-5.6.9-7.7,2.6c-2.1,1.8-3.8,4.2-4.9,7.4-1.2,3.2-1.8,6.8-1.8,10.9s.9,9.9,2.8,14.9c1.9,5,4.8,9.2,8.6,12.6,3.9,3.4,8.6,5.1,14.2,5.1s5.6-.5,8.2-1.6,5.1-2.7,7.3-4.8l1.5,1.8c-3.2,4.2-6.9,7.5-10.9,9.9s-8.7,3.5-14.1,3.5-10.8-1.3-15.3-4h0Z"/>
      <path class="cls-1" d="M145.2,85.9c-2.8-2.8-4.1-6.3-4.1-10.6s.8-5.6,2.3-8,3.8-4.7,6.9-6.9c3-2.2,7-4.5,11.9-6.9l4.2-2.1,16.1-7.5v3.6l-13.2,6.2c-4.9,2.3-8.7,4.8-11.4,7.3-2.7,2.5-4,5.4-4,8.6s1,5.4,3.1,7.4,4.8,3,8.2,3,5.3-.7,8-2.1c2.7-1.4,4.9-3.2,6.6-5.6l1.1,1.8c-2.7,4.7-6,8.5-9.9,11.4-4,3-8.6,4.4-14.1,4.4s-9.1-1.4-11.9-4.2h0ZM179.4,74.2v-34.5c0-4.5-.4-7.8-1.2-9.8s-2.2-3-4.2-3-4.9,1.2-8.2,3.8-7.5,6.6-12.5,12.2c-1,1.1-2,1.7-3.1,1.7-1.1,0-2-.4-2.6-1.2-.7-.9-.9-2-.6-3.4l1.6-10.5c2.9-1.4,6.6-2.7,11.2-3.9,4.5-1.2,8.7-1.8,12.4-1.8,6.7,0,11.8,2,15.5,6.1s5.5,10.5,5.4,19.4v23c-.1,0,2.9,16.4,2.9,16.4h-13.5l-2.9-14.5h0Z"/>
      <path class="cls-1" d="M210.4,44.2l-2-17.7,13.2-2,2.1,17.9v46.4h-13.4v-44.5h0ZM234.2,29.5c4.4-3.4,9-5.1,13.8-5.1v10.1c0,1.7-.5,2.9-1.5,3.7-1,.8-2.2,1.1-3.8.9-4.3-.5-8.4-.2-12.1.9-3.7,1.1-6.8,3-9.2,5.8v-1.8c4.1-6.2,8.3-11.1,12.7-14.5h0Z"/>
      <path class="cls-1" d="M262,85.9c-2.3-3-3.5-8-3.5-15.1V29.1c.1,0-5.9,0-5.9,0v-2.1l19.1-18.4v16.9h24.7v3.6h-24.7v47.7c0,4,.2,6.7.8,8.1.5,1.4,1.3,2.1,2.4,2.1s3.4-1.5,6-4.4c2.6-3,5.4-7.1,8.4-12.3.6-1,1.4-1.6,2.3-1.8s1.8,0,2.5.6,1.1,1.6,1.1,2.8v11.9c-3.3,1.8-7,3.4-11.1,4.7s-7.9,1.9-11.5,1.9-8.2-1.5-10.5-4.4h0Z"/>
      <path class="cls-1" d="M307.9,2.4l13.2-2.1v88.5h-13.2V2.4ZM345.6,36.5c-1.8-2.5-4.4-3.8-7.8-3.8s-5.7.9-8.7,2.7c-3,1.8-6.1,4.5-9.3,8.1v-2.5c3.6-5.3,7.5-9.5,11.7-12.6,4.2-3,8.5-4.6,12.9-4.6s9.1,2.1,12.4,6.3,4.9,10.4,4.9,18.6v39.9h-13.4v-40.7c0-5.1-.9-8.9-2.8-11.4h0Z"/>
      <path class="cls-1" d="M380.2,102.2c1.1-1.1,2.7-1.7,4.8-1.8,2.5-.2,5.1-.7,7.8-1.4s4.9-1.8,6.6-3.1,2.6-2.7,2.6-4.2c0-2.6-3.6-5-10.9-7.1l-20.7-59.1h13.9l21.2,61.8h-1.1c2.9-8.9,5.2-17.9,7-27.1,1.8-9.2,3-18.8,3.8-29,0-1.9.6-3.4,1.8-4.4,1.2-1,2.6-1.5,4.2-1.4h11.8c0,.1-28.4,68.9-28.4,68.9-2.9,7.2-6.4,12.5-10.3,16.1s-8.5,5.5-13.6,5.8l-1.5-9.1c-.3-2.1,0-3.7,1.1-4.8h0Z"/>
    </g>
  </g>
</svg>