<?xml version="1.0" encoding="UTF-8"?>
<svg id="Layer_2" data-name="Layer 2" xmlns="http://www.w3.org/2000/svg" viewBox="0 0 432.85 116.09">
  <defs>
    <style>
      .cls-1 {
        fill: #fff;
        stroke-width: 0px;
      }
    </style>
  </defs>
  <g id="Layer_1-2" data-name="Layer 1">
    <g>
      <path class="cls-1" d="M39.3,88.72c-.79-1.08-.94-2.46-.44-4.12l11.25-37.99c1.33-4.75,1.85-8.14,1.56-10.18-.29-2.04-1.15-3.06-2.56-3.06-2,0-5.62,3.06-10.87,9.18-5.25,6.12-12.2,16.43-20.87,30.93l-4.12,15.24H0L21.87,6.25l8.75,4.62-22.99.5.38-2.37c8-1.5,15.12-4.16,21.37-8,1-.67,1.96-1,2.87-1,1.33,0,2.33.5,3,1.5.67,1,.79,2.25.37,3.75l-12.62,47.11c-1.17,4.42-2.96,9.62-5.37,15.62l-.75-.12c7.91-12.91,15.37-23.47,22.37-31.68,7-8.2,13.29-12.31,18.87-12.31,3.41,0,5.75,1.81,7,5.44,1.25,3.62.71,9.43-1.62,17.43l-6.87,22.99c-.58,1.92-1.35,3.94-2.31,6.06-.96,2.12-1.98,4.02-3.06,5.69l-6.37-2.87c10.25-2.92,18.7-6.41,25.37-10.5l1.5,2.25-26.24,18.99c-1.08.67-2.08,1-3,1-1.33,0-2.4-.54-3.19-1.62Z"/>
      <path class="cls-1" d="M92.65,86.35c-4.54-2.67-8.08-6.37-10.62-11.12-2.54-4.75-3.81-10.16-3.81-16.24s1.42-12.16,4.25-17.49c2.83-5.33,6.64-9.6,11.43-12.81,4.79-3.21,10.14-4.81,16.06-4.81,4.75,0,8.93,1.04,12.56,3.12,3.62,2.08,6.41,4.83,8.37,8.25,1.96,3.42,2.94,7.17,2.94,11.25,0,2.58-.42,4.48-1.25,5.69-.83,1.21-1.87,1.98-3.12,2.31-1.25.33-2.92.5-5,.5h-35.99v-3.62h36.61l-5.37,2.75.12-3c0-3.58-.54-7.14-1.62-10.68-1.08-3.54-2.77-6.48-5.06-8.81-2.29-2.33-5.1-3.5-8.43-3.5-3,0-5.56.88-7.69,2.62-2.12,1.75-3.77,4.21-4.94,7.37-1.17,3.17-1.75,6.79-1.75,10.87,0,4.92.94,9.87,2.81,14.87,1.87,5,4.75,9.21,8.62,12.62,3.87,3.42,8.6,5.12,14.18,5.12,2.83,0,5.56-.54,8.18-1.62,2.62-1.08,5.06-2.67,7.31-4.75l1.5,1.75c-3.25,4.25-6.89,7.54-10.93,9.87-4.04,2.33-8.73,3.5-14.06,3.5-5.67,0-10.77-1.33-15.31-4Z"/>
      <path class="cls-1" d="M145.2,85.91c-2.75-2.79-4.12-6.31-4.12-10.56,0-2.92.77-5.58,2.31-8,1.54-2.42,3.83-4.71,6.87-6.87,3.04-2.17,7.02-4.46,11.93-6.87l4.25-2.12,16.12-7.5v3.62l-13.25,6.25c-4.92,2.33-8.71,4.77-11.37,7.31-2.67,2.54-4,5.39-4,8.56,0,2.92,1.04,5.37,3.12,7.37,2.08,2,4.83,3,8.25,3,2.67,0,5.33-.69,8-2.06,2.67-1.37,4.87-3.23,6.62-5.56l1.12,1.75c-2.67,4.67-5.98,8.48-9.93,11.43-3.96,2.96-8.64,4.44-14.06,4.44s-9.12-1.39-11.87-4.19ZM179.44,74.22v-34.49c0-4.5-.42-7.75-1.25-9.75-.83-2-2.25-3-4.25-3-2.17,0-4.92,1.25-8.25,3.75-3.33,2.5-7.5,6.58-12.5,12.25-1,1.08-2.04,1.65-3.12,1.69-1.08.04-1.96-.38-2.62-1.25-.67-.88-.88-2.02-.62-3.44l1.62-10.5c2.92-1.42,6.64-2.71,11.18-3.87,4.54-1.17,8.68-1.75,12.43-1.75,6.66,0,11.83,2.02,15.49,6.06,3.66,4.04,5.46,10.52,5.37,19.43l-.12,22.99,3,16.37h-13.5l-2.87-14.5Z"/>
      <path class="cls-1" d="M210.43,44.23l-2-17.74,13.25-2,2.12,17.87v46.36h-13.37v-44.48ZM234.23,29.49c4.37-3.41,8.98-5.12,13.81-5.12v10.12c0,1.67-.5,2.9-1.5,3.69-1,.79-2.25,1.11-3.75.94-4.33-.5-8.35-.21-12.06.87-3.71,1.08-6.77,3-9.19,5.75v-1.75c4.08-6.25,8.31-11.08,12.68-14.5Z"/>
      <path class="cls-1" d="M262.03,85.91c-2.33-2.96-3.5-7.98-3.5-15.06l.12-41.74h-6v-2.12l19.12-18.37v16.87h24.74v3.62h-24.74v47.73c0,4,.25,6.69.75,8.06.5,1.37,1.29,2.06,2.38,2.06,1.42,0,3.41-1.48,6-4.44,2.58-2.96,5.37-7.06,8.37-12.31.58-1,1.35-1.6,2.31-1.81.96-.21,1.79,0,2.5.62.71.62,1.06,1.56,1.06,2.81v11.87c-3.33,1.83-7.04,3.4-11.12,4.69-4.08,1.29-7.92,1.94-11.5,1.94-4.67,0-8.17-1.48-10.5-4.44Z"/>
      <path class="cls-1" d="M307.89,2.37l13.25-2.12v88.47h-13.25V2.37ZM345.63,36.49c-1.83-2.5-4.42-3.75-7.75-3.75-2.83,0-5.73.9-8.68,2.69-2.96,1.79-6.06,4.48-9.31,8.06v-2.5c3.58-5.33,7.48-9.52,11.68-12.56,4.21-3.04,8.52-4.56,12.93-4.56,5,0,9.12,2.1,12.37,6.31,3.25,4.21,4.87,10.39,4.87,18.56v39.86h-13.37v-40.74c0-5.08-.92-8.87-2.75-11.37Z"/>
      <path class="cls-1" d="M380.24,102.22c1.08-1.08,2.67-1.67,4.75-1.75,2.5-.17,5.08-.65,7.75-1.44,2.67-.79,4.87-1.83,6.62-3.12,1.75-1.29,2.62-2.69,2.62-4.19,0-2.58-3.62-4.96-10.87-7.12l-20.74-59.1h13.87l21.24,61.85h-1.12c2.92-8.91,5.25-17.95,7-27.12,1.75-9.16,3-18.83,3.75-28.99,0-1.92.58-3.39,1.75-4.44,1.17-1.04,2.58-1.52,4.25-1.44l11.75.12-28.37,68.73c-2.92,7.16-6.35,12.54-10.31,16.12-3.96,3.58-8.48,5.5-13.56,5.75l-1.5-9.12c-.33-2.08.04-3.67,1.12-4.75Z"/>
    </g>
  </g>
</svg>